<svg width="55" height="16" viewBox="0 0 55 16" fill="none" xmlns="http://www.w3.org/2000/svg">
<g opacity="0.2">
<path d="M6.30465 7.61087L1 1H4.90869L10.4925 7.61087L4.90869 15.2388H1L6.30465 7.61087Z" stroke="black" stroke-width="0.5"/>
<path d="M15.0061 7.61087L9.70142 1H13.6101L19.194 7.61087L13.6101 15.2388H9.70142L15.0061 7.61087Z" stroke="black" stroke-width="0.5"/>
<path d="M23.7077 7.61087L18.4031 1H22.3118L27.8956 7.61087L22.3118 15.2388H18.4031L23.7077 7.61087Z" stroke="black" stroke-width="0.5"/>
<path d="M32.4091 7.61087L27.1045 1H31.0132L36.597 7.61087L31.0132 15.2388H27.1045L32.4091 7.61087Z" stroke="black" stroke-width="0.5"/>
<path d="M41.1106 7.61087L35.8059 1H39.7146L45.2984 7.61087L39.7146 15.2388H35.8059L41.1106 7.61087Z" stroke="black" stroke-width="0.5"/>
<path d="M49.8122 7.61087L44.5076 1H48.4163L54.0001 7.61087L48.4163 15.2388H44.5076L49.8122 7.61087Z" stroke="black" stroke-width="0.5"/>
</g>
</svg>
