<svg width="92" height="92" viewBox="0 0 92 92" fill="none" xmlns="http://www.w3.org/2000/svg">
<g clip-path="url(#clip0_1591_4927)">
<rect width="92" height="92" fill="black"/>
<path d="M70.2331 92.92H71.1531V92V50.4043C71.1531 36.6531 60.0055 25.5055 46.2544 25.5055C32.5032 25.5055 21.3556 36.6531 21.3556 50.4043V92V92.92H22.2756H70.2331Z" fill="#8DFC7E"/>
<path d="M70.2331 92.92H71.1531V92V50.4043C71.1531 36.6531 60.0055 25.5055 46.2544 25.5055C32.5032 25.5055 21.3556 36.6531 21.3556 50.4043V92V92.92H22.2756H70.2331Z" stroke="white" stroke-width="1.84"/>
<path d="M70.2331 92.92H71.1531V92V50.4043C71.1531 36.6531 60.0055 25.5055 46.2544 25.5055C32.5032 25.5055 21.3556 36.6531 21.3556 50.4043V92V92.92H22.2756H70.2331Z" stroke="white" stroke-width="1.84"/>
<path d="M23.6556 50.4043C23.6556 37.9233 33.7734 27.8055 46.2544 27.8055C58.7353 27.8055 68.8531 37.9233 68.8531 50.4043V109.216H23.6556V50.4043Z" fill="#8DFC7E"/>
<path d="M23.6556 50.4043C23.6556 37.9233 33.7734 27.8055 46.2544 27.8055C58.7353 27.8055 68.8531 37.9233 68.8531 50.4043V109.216H23.6556V50.4043Z" stroke="white" stroke-width="2.76"/>
<path d="M23.6556 50.4043C23.6556 37.9233 33.7734 27.8055 46.2544 27.8055C58.7353 27.8055 68.8531 37.9233 68.8531 50.4043V109.216H23.6556V50.4043Z" stroke="black" stroke-width="2.76"/>
<path fill-rule="evenodd" clip-rule="evenodd" d="M71.3814 55.777V59.2178C71.3814 61.7164 70.3029 64.0933 68.4225 65.7386C67.5951 66.4626 66.6374 67.0225 65.6006 67.3884L64.66 67.7204C60.6002 69.1533 56.1051 68.6179 52.4955 66.2716L47.6923 63.1495L46.113 63.1495H44.0073L39.2041 66.2716C35.5944 68.6179 31.0993 69.1533 27.0396 67.7204L26.0989 67.3884C25.0621 67.0225 24.1045 66.4626 23.277 65.7386C21.3967 64.0933 20.3181 61.7164 20.3181 59.2178V55.777C20.3181 51.9989 23.3809 48.936 27.1591 48.936L45.5866 48.936H64.5404C68.3186 48.936 71.3814 51.9988 71.3814 55.777Z" fill="#111111"/>
<path d="M68.4225 65.7386L67.8167 65.0462L68.4225 65.7386ZM65.6006 67.3884L65.2944 66.5209L65.6006 67.3884ZM64.66 67.7204L64.3538 66.8529L64.66 67.7204ZM52.4955 66.2716L51.9941 67.043L52.4955 66.2716ZM47.6923 63.1495L48.1936 62.3782L47.965 62.2295L47.6923 62.2295L47.6923 63.1495ZM46.113 63.1495V64.0695H46.113L46.113 63.1495ZM44.0073 63.1495V62.2295H43.7346L43.5059 62.3782L44.0073 63.1495ZM39.2041 66.2716L39.7054 67.043L39.2041 66.2716ZM27.0396 67.7204L27.3458 66.8529H27.3458L27.0396 67.7204ZM26.0989 67.3884L26.4051 66.5209L26.0989 67.3884ZM23.277 65.7386L23.8828 65.0462H23.8828L23.277 65.7386ZM27.1591 48.936V49.856H27.1591L27.1591 48.936ZM45.5866 48.936V48.016V48.936ZM72.3014 59.2178V55.777H70.4614V59.2178H72.3014ZM69.0283 66.4309C71.1083 64.611 72.3014 61.9817 72.3014 59.2178H70.4614C70.4614 61.4511 69.4974 63.5756 67.8167 65.0462L69.0283 66.4309ZM65.9068 68.256C67.0537 67.8512 68.113 67.2318 69.0283 66.4309L67.8167 65.0462C67.0771 65.6933 66.2211 66.1938 65.2944 66.5209L65.9068 68.256ZM64.9662 68.588L65.9068 68.256L65.2944 66.5209L64.3538 66.8529L64.9662 68.588ZM51.9941 67.043C55.8434 69.545 60.6369 70.1159 64.9662 68.588L64.3538 66.8529C60.5636 68.1906 56.3669 67.6908 52.9969 65.5003L51.9941 67.043ZM47.1909 63.9209L51.9941 67.043L52.9969 65.5003L48.1936 62.3782L47.1909 63.9209ZM46.113 64.0695L47.6923 64.0695L47.6923 62.2295L46.113 62.2295L46.113 64.0695ZM46.113 62.2295H44.0073V64.0695H46.113V62.2295ZM43.5059 62.3782L38.7027 65.5003L39.7054 67.043L44.5087 63.9209L43.5059 62.3782ZM38.7027 65.5003C35.3327 67.6908 31.136 68.1906 27.3458 66.8529L26.7334 68.588C31.0626 70.1159 35.8562 69.545 39.7054 67.043L38.7027 65.5003ZM27.3458 66.8529L26.4051 66.5209L25.7927 68.256L26.7334 68.588L27.3458 66.8529ZM26.4051 66.5209C25.4784 66.1938 24.6224 65.6933 23.8828 65.0462L22.6712 66.431C23.5865 67.2318 24.6459 67.8512 25.7927 68.256L26.4051 66.5209ZM23.8828 65.0462C22.2022 63.5756 21.2381 61.4511 21.2381 59.2178H19.3981C19.3981 61.9817 20.5912 64.611 22.6712 66.431L23.8828 65.0462ZM21.2381 59.2178V55.777H19.3981V59.2178H21.2381ZM21.2381 55.777C21.2381 52.507 23.889 49.856 27.1591 49.856V48.016C22.8728 48.016 19.3981 51.4907 19.3981 55.777H21.2381ZM27.1591 49.856L45.5866 49.856V48.016L27.1591 48.016L27.1591 49.856ZM64.5404 48.016H45.5866V49.856H64.5404V48.016ZM72.3014 55.777C72.3014 51.4907 68.8267 48.016 64.5404 48.016V49.856C67.8105 49.856 70.4614 52.5069 70.4614 55.777H72.3014Z" fill="white"/>
<path d="M46.7437 77.6326C47.6571 78.3505 50.3062 79.0972 53.5947 76.3403" stroke="black" stroke-width="1.84"/>
<mask id="path-6-outside-1_1591_4927" maskUnits="userSpaceOnUse" x="18.6146" y="12.5127" width="56" height="31" fill="black">
<rect fill="white" x="18.6146" y="12.5127" width="56" height="31"/>
<path fill-rule="evenodd" clip-rule="evenodd" d="M43.1635 35.3024C41.5957 37.2694 39.4311 38.7849 36.8396 39.5369C30.1276 41.4847 23.0933 37.5738 21.1281 30.8017C19.1629 24.0297 23.011 16.9609 29.723 15.0131C34.1879 13.7174 38.7954 15.0142 41.9585 18.0212C43.1639 16.8224 44.6635 15.9075 46.3899 15.4065C52.1279 13.7414 58.1982 17.2803 59.9482 23.3109C59.9563 23.3387 59.9643 23.3666 59.9721 23.3944C60.1026 23.3512 60.2346 23.3102 60.3679 23.2715C65.6211 21.7471 71.0065 24.3942 72.3965 29.1841C73.7865 33.974 70.6547 39.0928 65.4014 40.6172C60.9231 41.9168 56.3488 40.1847 54.2355 36.6779C53.755 36.9028 53.2516 37.0931 52.7273 37.2453C49.3351 38.2297 45.8267 37.3952 43.1635 35.3024Z"/>
</mask>
<path fill-rule="evenodd" clip-rule="evenodd" d="M43.1635 35.3024C41.5957 37.2694 39.4311 38.7849 36.8396 39.5369C30.1276 41.4847 23.0933 37.5738 21.1281 30.8017C19.1629 24.0297 23.011 16.9609 29.723 15.0131C34.1879 13.7174 38.7954 15.0142 41.9585 18.0212C43.1639 16.8224 44.6635 15.9075 46.3899 15.4065C52.1279 13.7414 58.1982 17.2803 59.9482 23.3109C59.9563 23.3387 59.9643 23.3666 59.9721 23.3944C60.1026 23.3512 60.2346 23.3102 60.3679 23.2715C65.6211 21.7471 71.0065 24.3942 72.3965 29.1841C73.7865 33.974 70.6547 39.0928 65.4014 40.6172C60.9231 41.9168 56.3488 40.1847 54.2355 36.6779C53.755 36.9028 53.2516 37.0931 52.7273 37.2453C49.3351 38.2297 45.8267 37.3952 43.1635 35.3024Z" fill="black"/>
<path d="M43.1635 35.3024L44.3004 33.8557L42.8637 32.7266L41.7247 34.1556L43.1635 35.3024ZM36.8396 39.5369L36.3268 37.7698L36.8396 39.5369ZM21.1281 30.8017L22.8952 30.289L21.1281 30.8017ZM29.723 15.0131L30.2358 16.7802L29.723 15.0131ZM41.9585 18.0212L40.6908 19.3548L41.9875 20.5874L43.256 19.3258L41.9585 18.0212ZM46.3899 15.4065L46.9027 17.1736L46.3899 15.4065ZM59.9482 23.3109L61.7153 22.7982L61.7153 22.7981L59.9482 23.3109ZM59.9721 23.3944L58.2014 23.8946L58.7245 25.7461L60.5508 25.141L59.9721 23.3944ZM60.3679 23.2715L60.8806 25.0386L60.8807 25.0386L60.3679 23.2715ZM72.3965 29.1841L70.6294 29.6969L72.3965 29.1841ZM65.4014 40.6172L64.8886 38.8501L65.4014 40.6172ZM54.2355 36.6779L55.8115 35.7282L54.9564 34.3092L53.4557 35.0113L54.2355 36.6779ZM52.7273 37.2453L52.2145 35.4782L52.7273 37.2453ZM41.7247 34.1556C40.3855 35.8357 38.5401 37.1275 36.3268 37.7698L37.3524 41.304C40.3221 40.4422 42.8059 38.7032 44.6024 36.4493L41.7247 34.1556ZM36.3268 37.7698C30.6055 39.4301 24.5815 36.0999 22.8952 30.289L19.361 31.3145C21.6051 39.0477 29.6496 43.5393 37.3524 41.304L36.3268 37.7698ZM22.8952 30.289C21.2089 24.478 24.5145 18.4405 30.2358 16.7802L29.2102 13.246C21.5074 15.4813 17.1169 23.5814 19.361 31.3145L22.8952 30.289ZM30.2358 16.7802C34.0417 15.6758 37.9783 16.7762 40.6908 19.3548L43.2263 16.6876C39.6126 13.2523 34.3342 11.7591 29.2102 13.246L30.2358 16.7802ZM45.8771 13.6394C43.8442 14.2293 42.0773 15.308 40.6611 16.7165L43.256 19.3258C44.2505 18.3368 45.4828 17.5856 46.9027 17.1736L45.8771 13.6394ZM61.7153 22.7981C59.7064 15.8754 52.6728 11.6673 45.8771 13.6394L46.9027 17.1736C51.583 15.8154 56.69 18.6852 58.1811 23.8237L61.7153 22.7981ZM61.7428 22.8942C61.7338 22.8621 61.7246 22.8301 61.7153 22.7982L58.1811 23.8236C58.188 23.8474 58.1948 23.871 58.2014 23.8946L61.7428 22.8942ZM59.8551 21.5044C59.6997 21.5495 59.5458 21.5973 59.3934 21.6478L60.5508 25.141C60.6595 25.105 60.7695 25.0709 60.8806 25.0386L59.8551 21.5044ZM74.1636 28.6713C72.4468 22.7555 65.9271 19.7423 59.8551 21.5044L60.8807 25.0386C65.315 23.7518 69.5661 26.033 70.6294 29.6969L74.1636 28.6713ZM65.9142 42.3843C71.9863 40.6223 75.8803 34.5872 74.1636 28.6713L70.6294 29.6969C71.6926 33.3609 69.323 37.5633 64.8886 38.8501L65.9142 42.3843ZM52.6595 37.6276C55.2459 41.9196 60.7171 43.8925 65.9142 42.3843L64.8886 38.8501C61.1292 39.9411 57.4516 38.4499 55.8115 35.7282L52.6595 37.6276ZM53.2401 39.0124C53.8563 38.8335 54.4489 38.6096 55.0153 38.3445L53.4557 35.0113C53.061 35.196 52.6469 35.3527 52.2145 35.4782L53.2401 39.0124ZM42.0266 36.7492C45.1173 39.1779 49.2328 40.1752 53.2401 39.0124L52.2145 35.4782C49.4373 36.2841 46.5361 35.6126 44.3004 33.8557L42.0266 36.7492Z" fill="white" mask="url(#path-6-outside-1_1591_4927)"/>
<path d="M61.5919 46L62.529 50.0483C62.8404 51.3933 63.8784 52.4509 65.2174 52.7874L68.5157 53.6162L65.2174 54.445C63.8784 54.7815 62.8404 55.8391 62.529 57.1842L61.5919 61.2324L60.6548 57.1842C60.3435 55.8391 59.3054 54.7815 57.9664 54.445L54.6681 53.6162L57.9664 52.7874C59.3054 52.4509 60.3435 51.3933 60.6548 50.0483L61.5919 46Z" fill="white"/>
</g>
<defs>
<clipPath id="clip0_1591_4927">
<rect width="92" height="92" fill="white"/>
</clipPath>
</defs>
</svg>
