<svg width="100" height="12" viewBox="0 0 100 12" fill="none" xmlns="http://www.w3.org/2000/svg">
<path d="M14.5733 0.187256L12.3904 11.18H10.0034L11.2911 4.63671L7.10342 10.0075H5.9675L3.70613 4.59221L2.39747 11.1879H0L2.19855 0.195108H4.27147L7.01966 7.04203L12.3904 0.187256H14.5733Z" fill="white"/>
<path d="M16.9288 10.3477C16.1436 9.66197 15.751 8.72235 15.751 7.52885C15.7562 7.1332 15.7982 6.7389 15.8766 6.35106L17.1015 0.187256H19.6613L18.4364 6.29609C18.3775 6.60152 18.3459 6.91159 18.3421 7.22262C18.3421 7.88219 18.5227 8.37687 18.8839 8.70665C19.3267 9.06278 19.8873 9.23936 20.4543 9.20132C20.7939 9.21795 21.1333 9.16526 21.4519 9.04647C21.7705 8.92767 22.0616 8.74526 22.3074 8.51035C22.768 8.0497 23.103 7.31161 23.3124 6.29609L24.5452 0.187256H27.0421L25.8015 6.46883C25.1315 9.74573 23.2575 11.3842 20.1795 11.3842C18.7975 11.3789 17.714 11.0334 16.9288 10.3477Z" fill="white"/>
<path d="M28.7043 11.0309C28.0197 10.8528 27.372 10.555 26.791 10.1514L27.8379 8.18845C28.3535 8.56139 28.9263 8.84782 29.534 9.03646C30.1536 9.2384 30.8008 9.34346 31.4525 9.34792C32.0285 9.37592 32.6022 9.25703 33.1197 9.00243C33.3065 8.92031 33.4652 8.7854 33.5763 8.61428C33.6875 8.44316 33.7462 8.2433 33.7452 8.03926C33.7454 7.88107 33.6994 7.72627 33.6129 7.59379C33.5265 7.46132 33.4033 7.3569 33.2584 7.29332C32.7595 7.05741 32.2389 6.8707 31.7037 6.73583C31.1112 6.56917 30.5291 6.36728 29.9606 6.13123C29.5024 5.94026 29.0954 5.64443 28.7723 5.26751C28.4281 4.83065 28.2533 4.28408 28.2803 3.72852C28.267 3.0244 28.4839 2.33519 28.898 1.76553C29.3488 1.17075 29.9598 0.716795 30.6594 0.456869C31.5044 0.13773 32.4025 -0.0168517 33.3055 0.0014551C34.0107 -0.00160244 34.7137 0.0801209 35.3994 0.244866C35.9995 0.382378 36.5726 0.618527 37.0954 0.943692L36.1349 2.89098C35.7145 2.6023 35.2481 2.38723 34.7555 2.25497C34.2336 2.11264 33.6948 2.04133 33.1537 2.04297C32.5589 2.01311 31.9669 2.14326 31.4394 2.41986C31.2558 2.50914 31.1004 2.6472 30.99 2.81893C30.8797 2.99066 30.8187 3.18945 30.8138 3.39351C30.8111 3.50723 30.833 3.62019 30.8782 3.72459C30.9234 3.82898 30.9908 3.92231 31.0756 3.99811C31.2721 4.17283 31.5018 4.30633 31.7508 4.39071C32.0213 4.49017 32.4034 4.60795 32.8972 4.74405C33.4855 4.8954 34.0626 5.08691 34.6247 5.31724C35.0689 5.50846 35.4637 5.79849 35.7789 6.16525C36.1121 6.57987 36.2816 7.10232 36.2553 7.63357C36.2698 8.34194 36.0488 9.03509 35.6271 9.60442C35.1688 10.1961 34.5555 10.6491 33.8552 10.9131C33.0032 11.2372 32.0969 11.3945 31.1855 11.3763C30.3463 11.3782 29.511 11.2619 28.7043 11.0309Z" fill="white"/>
<path d="M41.7073 2.23662L41.2361 4.63671H46.3399L45.9473 6.6154H40.8278L40.3253 9.15944H46.3242L45.9002 11.18H37.3887L39.5872 0.187256H47.8946L47.4706 2.22877L41.7073 2.23662Z" fill="white"/>
<path d="M59.3396 9.31921H53.8276L54.351 6.72545L53.4742 6.46371C53.4505 6.45556 53.4299 6.4402 53.4154 6.41979C53.4008 6.39938 53.393 6.37493 53.393 6.34986C53.393 6.32478 53.4008 6.30033 53.4154 6.27992C53.4299 6.25951 53.4505 6.24416 53.4742 6.236L54.105 6.00306L56.2931 5.16028C56.3159 5.15161 56.3356 5.1362 56.3494 5.1161C56.3633 5.096 56.3707 5.07216 56.3707 5.04774C56.3707 5.02332 56.3633 4.99948 56.3494 4.97938C56.3356 4.95928 56.3159 4.94387 56.2931 4.93519L54.8038 4.48763L55.4843 1.08511L56.3873 0.383667H53.0581L52.2336 4.50072L53.6679 4.92996C53.6907 4.93863 53.7104 4.95404 53.7242 4.97414C53.7381 4.99425 53.7455 5.01809 53.7455 5.04251C53.7455 5.06692 53.7381 5.09077 53.7242 5.11087C53.7104 5.13097 53.6907 5.14638 53.6679 5.15505L51.9666 5.79629L50.8386 6.21507C50.8149 6.22322 50.7943 6.23857 50.7797 6.25898C50.7652 6.2794 50.7573 6.30384 50.7573 6.32892C50.7573 6.35399 50.7652 6.37844 50.7797 6.39885C50.7943 6.41927 50.8149 6.43462 50.8386 6.44277L51.773 6.72806L50.8438 11.3764H58.0467C58.2876 11.3759 58.5209 11.2923 58.7074 11.1397C58.8938 10.9871 59.0219 10.7749 59.0701 10.5389L59.2402 9.71705L59.7637 9.30874H59.3213L59.3396 9.31921Z" fill="#53EB41"/>
<path d="M68.1578 0.333862H65.6765C65.4348 0.333936 65.2006 0.417647 65.0136 0.570789C64.8266 0.723931 64.6983 0.937068 64.6506 1.17402L63.9753 4.50588L65.4462 4.94559C65.469 4.95426 65.4887 4.96967 65.5026 4.98977C65.5164 5.00987 65.5238 5.03371 65.5238 5.05813C65.5238 5.08255 65.5164 5.10639 65.5026 5.12649C65.4887 5.14659 65.469 5.162 65.4462 5.17068L63.7476 5.81192L62.6169 6.23069C62.5932 6.23885 62.5726 6.2542 62.558 6.27461C62.5435 6.29502 62.5356 6.31947 62.5356 6.34455C62.5356 6.36962 62.5435 6.39407 62.558 6.41448C62.5726 6.43489 62.5932 6.45025 62.6169 6.4584L63.5303 6.7306L62.6117 11.3266H64.3129C64.555 11.3264 64.7895 11.2423 64.9766 11.0887C65.1637 10.935 65.2917 10.7213 65.3389 10.4838L66.0927 6.71228L65.2499 6.45055C65.2262 6.4424 65.2056 6.42704 65.1911 6.40663C65.1765 6.38622 65.1687 6.36177 65.1687 6.3367C65.1687 6.31162 65.1765 6.28717 65.1911 6.26676C65.2056 6.24635 65.2262 6.231 65.2499 6.22284L65.8807 5.9899L68.0714 5.16021C68.0942 5.15153 68.1139 5.13612 68.1277 5.11602C68.1416 5.09592 68.149 5.07208 68.149 5.04766C68.149 5.02324 68.1416 4.9994 68.1277 4.9793C68.1139 4.9592 68.0942 4.94379 68.0714 4.93512L66.5481 4.4797L67.2339 1.04839L68.1578 0.333862Z" fill="#53EB41"/>
<path d="M83.3379 0.187256H80.0714L78.7104 7.07605L75.0462 0.925341L76.0093 0.187256H73.3658C73.1241 0.187329 72.8899 0.271041 72.7029 0.424183C72.5159 0.577325 72.3876 0.790461 72.3399 1.02742L71.6384 4.53201L73.0361 4.95079C73.0589 4.95946 73.0785 4.97487 73.0924 4.99497C73.1063 5.01507 73.1137 5.03891 73.1137 5.06333C73.1137 5.08775 73.1063 5.11159 73.0924 5.13169C73.0785 5.15179 73.0589 5.1672 73.0361 5.17588L71.3767 5.80142L70.2067 6.23328C70.183 6.24143 70.1625 6.25678 70.1479 6.27719C70.1333 6.29761 70.1255 6.32206 70.1255 6.34713C70.1255 6.37221 70.1333 6.39665 70.1479 6.41706C70.1625 6.43748 70.183 6.45283 70.2067 6.46098L71.1778 6.75674L70.3088 11.18H72.8214L74.2034 4.30169L78.3021 11.18H79.5323C79.7743 11.1798 80.0089 11.0957 80.1959 10.9421C80.383 10.7884 80.511 10.5747 80.5583 10.3372L81.2833 6.73057L80.43 6.46883C80.4063 6.46068 80.3857 6.44533 80.3712 6.42492C80.3566 6.40451 80.3488 6.38006 80.3488 6.35498C80.3488 6.32991 80.3566 6.30546 80.3712 6.28505C80.3857 6.26464 80.4063 6.24928 80.43 6.24113L81.0608 6.00819L83.2515 5.16017C83.2743 5.1515 83.294 5.13609 83.3078 5.11599C83.3217 5.09589 83.3291 5.07205 83.3291 5.04763C83.3291 5.02321 83.3217 4.99937 83.3078 4.97927C83.294 4.95917 83.2743 4.94376 83.2515 4.93508L81.736 4.48229L82.4611 0.859908L83.3379 0.187256Z" fill="#53EB41"/>
<path d="M91.423 6.46887C91.3992 6.46072 91.3787 6.44537 91.3641 6.42496C91.3495 6.40454 91.3417 6.3801 91.3417 6.35502C91.3417 6.32995 91.3495 6.3055 91.3641 6.28509C91.3787 6.26467 91.3992 6.24932 91.423 6.24117L92.0537 6.00822L94.2444 5.16021C94.2673 5.15154 94.2869 5.13613 94.3008 5.11603C94.3146 5.09593 94.3221 5.07209 94.3221 5.04767C94.3221 5.02325 94.3146 4.99941 94.3008 4.97931C94.2869 4.95921 94.2673 4.9438 94.2444 4.93512L93.1268 4.6001L97.9218 0.380978H94.8438L89.1433 5.42194L90.0174 1.06933L90.9335 0.357422H88.8397V0.380978H88.4968C88.2501 0.377341 88.01 0.460952 87.8189 0.617062C87.6279 0.773171 87.4981 0.991747 87.4525 1.23423L86.7929 4.52944L88.2167 4.95606C88.2396 4.96474 88.2592 4.98014 88.2731 5.00025C88.2869 5.02035 88.2944 5.04419 88.2944 5.06861C88.2944 5.09302 88.2869 5.11687 88.2731 5.13697C88.2592 5.15707 88.2396 5.17248 88.2167 5.18115L86.5286 5.81978L85.3874 6.24117C85.3637 6.24932 85.3431 6.26467 85.3285 6.28509C85.314 6.3055 85.3062 6.32995 85.3062 6.35502C85.3062 6.3801 85.314 6.40454 85.3285 6.42496C85.3431 6.44537 85.3637 6.46072 85.3874 6.46887L86.3323 6.75678L85.4057 11.3842H87.9341L88.4837 8.65172L90.2582 7.08133L92.7761 10.9131C92.8714 11.0578 93.0012 11.1767 93.1538 11.2589C93.3064 11.3411 93.477 11.3842 93.6503 11.3842H95.9431L93.1007 6.98711L91.423 6.46887Z" fill="#53EB41"/>
<path d="M61.0435 8.8481C61.0168 8.79333 60.975 8.74729 60.9232 8.71532C60.8713 8.68335 60.8114 8.66677 60.7504 8.6675H59.7035L59.6668 8.87427L59.6459 8.85857V8.99205L59.6328 9.0601H60.6248L60.0751 9.79295L59.6564 11.256L60.0359 11.3581L60.4075 9.99711L61.0121 9.19097C61.049 9.14252 61.0715 9.08467 61.0771 9.02404C61.0826 8.96341 61.071 8.90244 61.0435 8.8481Z" fill="white"/>
<path d="M57.3319 4.54519L56.1123 4.09239L56.6802 1.4044L58.057 0.331299H57.4183L56.3269 1.18455L55.6569 4.34104L57.1932 4.91423C57.2055 4.91835 57.2163 4.92602 57.2242 4.93627C57.2321 4.94652 57.2368 4.95889 57.2377 4.97182C57.2385 4.98474 57.2355 4.9976 57.2289 5.00878C57.2224 5.01996 57.2127 5.02896 57.2011 5.03463L55.314 5.99781L54.7905 8.61513L55.1753 8.69103L55.6647 6.24645L57.3817 5.36965C57.461 5.32938 57.5269 5.26688 57.5713 5.18978C57.6157 5.11268 57.6367 5.02432 57.6317 4.93549C57.6267 4.84666 57.5959 4.76121 57.5432 4.68957C57.4904 4.61794 57.4179 4.56322 57.3346 4.5321L57.3319 4.54519Z" fill="white"/>
<path d="M69.8642 0.265869H69.2439L68.1132 1.18455L67.4458 4.34104L68.9821 4.91424C68.9944 4.91835 69.0052 4.92602 69.0131 4.93627C69.0211 4.94652 69.0258 4.95889 69.0266 4.97182C69.0274 4.98474 69.0244 4.9976 69.0179 5.00879C69.0113 5.01997 69.0016 5.02896 68.99 5.03463L67.1055 5.99781L66.0586 11.2325L66.4433 11.3084L67.4562 6.24646L69.1732 5.36965C69.2525 5.32939 69.3184 5.26688 69.3628 5.18978C69.4072 5.11268 69.4282 5.02432 69.4232 4.93549C69.4182 4.84666 69.3875 4.76121 69.3347 4.68958C69.2819 4.61794 69.2095 4.56322 69.1261 4.53211L67.9064 4.07931L68.4744 1.3887L69.8642 0.265869Z" fill="white"/>
<path d="M85.2247 0.108765H84.6044L83.2826 1.18449L82.6152 4.34098L84.1516 4.91417C84.1639 4.91829 84.1746 4.92596 84.1826 4.93621C84.1905 4.94646 84.1952 4.95883 84.1961 4.97175C84.1969 4.98467 84.1938 4.99754 84.1873 5.00872C84.1808 5.0199 84.1711 5.0289 84.1594 5.03457L82.275 5.99774L81.228 11.2324L81.6128 11.3083L82.6257 6.24639L84.3426 5.36959C84.422 5.32932 84.4879 5.26682 84.5323 5.18972C84.5767 5.11262 84.5976 5.02426 84.5926 4.93543C84.5877 4.8466 84.5569 4.76115 84.5041 4.68951C84.4514 4.61788 84.3789 4.56316 84.2955 4.53204L83.0759 4.07925L83.6438 1.38864L85.2247 0.108765Z" fill="white"/>
<path d="M95.8984 5.59997C95.9797 5.56719 96.0495 5.51128 96.0993 5.43916C96.1491 5.36704 96.1766 5.2819 96.1785 5.19428C96.1829 5.11034 96.1634 5.02687 96.1221 4.95363C96.0809 4.88039 96.0196 4.82042 95.9455 4.78075L95.3619 4.39338L99.9998 0.396729H99.3978L94.7128 4.43526L95.7597 5.121C95.7711 5.12622 95.7807 5.13475 95.7872 5.14548C95.7938 5.15621 95.7969 5.16865 95.7963 5.1812C95.7966 5.19368 95.7929 5.20593 95.7859 5.21625C95.7788 5.22656 95.7688 5.23444 95.7571 5.23878L93.5742 6.15746L97.1887 11.5387L97.5133 11.3188L94.1553 6.34591L95.8984 5.59997Z" fill="white"/>
</svg>
