<svg width="167" height="24" viewBox="0 0 167 24" fill="none" xmlns="http://www.w3.org/2000/svg">
<path opacity="0.2" fill-rule="evenodd" clip-rule="evenodd" d="M0.721191 1.07991H5.65927L12.6804 17.2602L19.6726 1.07991H24.6112V23.4999H20.1012V10.4039L14.5114 23.4999H10.821L5.23119 10.4039V23.4999H0.721191V1.07991ZM4.73119 8.23991H4.85119L11.1512 22.9999H14.1812L20.4812 8.23991H20.6012V22.9999H24.1112V1.57991H20.0012L12.7412 18.3799H12.6212L5.33119 1.57991H1.22119V22.9999H4.73119V8.23991ZM27.8208 1.07991H32.3308V14.9299C32.3308 16.724 32.7367 17.9232 33.4803 18.6924C34.1858 19.4231 35.4048 19.8599 37.2308 19.8599C39.0172 19.8599 40.2415 19.4278 40.9812 18.6924C41.7013 17.9168 42.1308 16.7104 42.1308 14.9299V1.07991H46.6408V14.8699C46.6408 17.754 45.8319 20.033 44.1437 21.6238L44.14 21.6273C42.4607 23.1774 40.1343 23.9199 37.2308 23.9199C34.3012 23.9199 31.9708 23.1793 30.3483 21.6542C28.6314 20.0344 27.8208 17.7557 27.8208 14.8699V1.07991ZM41.3408 19.0399C40.4708 19.9099 39.0908 20.3599 37.2308 20.3599C35.3408 20.3599 33.9608 19.9099 33.1208 19.0399C32.2508 18.1399 31.8308 16.7899 31.8308 14.9299V1.57991H28.3208V14.8699C28.3208 17.6599 29.1008 19.7899 30.6908 21.2899C32.1908 22.6999 34.3808 23.4199 37.2308 23.4199C40.0508 23.4199 42.2408 22.6999 43.8008 21.2599C45.3608 19.7899 46.1408 17.6599 46.1408 14.8699V1.57991H42.6308V14.9299C42.6308 16.7899 42.1808 18.1399 41.3408 19.0399ZM52.2721 11.5099C50.6221 10.5199 49.8121 9.07991 49.8121 7.18991C49.8121 5.29991 50.5921 3.79991 52.2121 2.71991C53.7121 1.66991 55.6021 1.15991 57.9121 1.15991C60.4321 1.15991 62.4121 1.66991 63.8221 2.71991C65.2132 3.74935 66.0624 5.32066 66.3459 7.40991C66.3681 7.57341 66.3868 7.74008 66.4021 7.90991H62.9221C62.6221 6.58991 62.0521 5.62991 61.2721 5.05991C60.4921 4.45991 59.2921 4.18991 57.7321 4.18991C56.3821 4.18991 55.3621 4.36991 54.6421 4.75991C53.7421 5.20991 53.3221 5.95991 53.3221 6.97991C53.3221 7.87991 53.8021 8.62991 54.8221 9.16991C55.2721 9.40991 56.5021 9.85991 58.4821 10.4899C61.3921 11.3899 63.2521 12.1099 64.092 12.5899C65.9521 13.6999 66.8821 15.2299 66.8821 17.2099C66.8821 19.1299 66.132 20.6599 64.632 21.7699C63.132 22.8499 61.0021 23.4199 58.2721 23.4199C55.6321 23.4199 53.5621 22.9099 52.0921 21.8899C50.4039 20.7082 49.4282 18.8931 49.1897 16.4199C49.1739 16.2561 49.1614 16.0895 49.1521 15.9199H52.6321C52.8721 17.5399 53.4421 18.7099 54.3721 19.3999C55.2121 19.9999 56.5021 20.3299 58.2721 20.3299C59.8321 20.3299 61.0921 20.0599 61.9921 19.5499C62.8921 19.0099 63.3721 18.3199 63.3721 17.4199C63.3721 16.2799 62.6821 15.3799 61.3621 14.7199C60.9421 14.5099 59.5621 14.0299 57.1921 13.3099C54.5521 12.4699 52.9021 11.8699 52.2721 11.5099ZM61.7402 19.1179C62.533 18.6407 62.8721 18.0939 62.8721 17.4199C62.8721 16.5346 62.3566 15.7762 61.1384 15.1671C60.7649 14.9804 59.4323 14.5131 57.0467 13.7883L57.0404 13.7864C55.7173 13.3654 54.6374 13.003 53.8067 12.6996C52.9861 12.3998 52.3798 12.1473 52.024 11.944L52.0147 11.9388C50.2149 10.8588 49.3121 9.25642 49.3121 7.18991C49.3121 5.1361 50.1728 3.48046 51.9299 2.3071C53.5342 1.18577 55.5308 0.659912 57.9121 0.659912C60.4905 0.659912 62.5915 1.18043 64.1201 2.31844C65.7621 3.53382 66.6807 5.42142 66.9001 7.86522L66.9489 8.40991H62.5229L62.4345 8.02072C62.1521 6.77821 61.6308 5.94138 60.977 5.46361L60.9671 5.45634C60.3188 4.95763 59.2551 4.68991 57.7321 4.68991C56.4125 4.68991 55.4916 4.86837 54.8802 5.19956L54.873 5.20346L54.8657 5.20713C54.4902 5.39484 54.2381 5.63217 54.076 5.90891C53.9125 6.18794 53.8221 6.5388 53.8221 6.97991C53.8221 7.6569 54.1633 8.25543 55.056 8.72802L55.0573 8.72873C55.4586 8.94273 56.6395 9.37891 58.6318 10.0129C61.5376 10.9116 63.4465 11.6452 64.3401 12.1558L64.3483 12.1605C66.3409 13.3496 67.3821 15.0332 67.3821 17.2099C67.3821 19.2815 66.5623 20.9635 64.9295 22.1718L64.9242 22.1757C63.3099 23.338 61.0641 23.9199 58.2721 23.9199C55.5768 23.9199 53.3922 23.4007 51.807 22.3007L51.8053 22.2995C49.8517 20.932 48.8092 18.793 48.6528 15.9473L48.6238 15.4199H53.0634L53.1267 15.8466C53.356 17.3945 53.8861 18.4148 54.6664 18.9957C55.3855 19.5076 56.5532 19.8299 58.2721 19.8299C59.78 19.8299 60.9426 19.5681 61.7402 19.1179ZM69.3931 1.07991H85.8431V5.07991H73.9031V10.0199H85.1231V14.0199H73.9031V19.4999H86.3531V23.4999H69.3931V1.07991ZM85.8531 19.9999V22.9999H69.8931V1.57991H85.3431V4.57991H73.4031V10.5199H84.6231V13.5199H73.4031V19.9999H85.8531ZM98.6313 1.07991H103.111V19.4999H114.691V23.4999H98.6313V1.07991ZM114.191 19.9999V22.9999H99.1313V1.57991H102.611V19.9999H114.191ZM116.385 1.07991H120.895V23.4999H116.385V1.07991ZM116.885 22.9999V1.57991H120.395V22.9999H116.885ZM124.09 1.07991H128.364L138.31 15.5912V1.07991H142.85V23.4999H138.667L128.6 8.78126V23.4999H124.09V1.07991ZM128.1 7.33991H128.22L138.93 22.9999H142.35V1.57991H138.81V17.0299H138.69L128.1 1.57991H124.59V22.9999H128.1V7.33991ZM159.824 1.07991H165.702L155.743 10.7854L166.993 23.4999H160.912L152.65 13.8016L150.573 15.8304V23.4999H146.063V1.07991H150.573V10.4699L159.824 1.07991ZM150.073 11.6899V1.57991H146.563V22.9999H150.073V15.6199L152.683 13.0699L161.143 22.9999H165.883L155.053 10.7599L164.473 1.57991H160.033L150.073 11.6899Z" fill="black"/>
</svg>
